<svg width="10" height="18" viewBox="0 0 10 18" fill="none" xmlns="http://www.w3.org/2000/svg">
<path d="M5.01002 17.5999C4.64926 17.5999 4.10813 17.45 4.06805 17.0402V15.9908L3.7574 15.9209C2.96575 15.751 2.25427 15.3512 1.62295 14.7416C0.99163 14.1319 0.56073 13.2924 0.330249 12.243C0.260103 11.9132 0.310208 11.6234 0.490584 11.4035C0.670961 11.1736 0.981609 11.0337 1.29226 11.0337C1.64299 11.0337 1.90353 11.2036 2.0338 11.5034C2.26429 12.4529 2.6551 13.1825 3.20625 13.6522C3.76742 14.1219 4.43882 14.3618 5.21043 14.3618C5.98204 14.3618 6.65345 14.1919 7.10439 13.8721C7.59541 13.5123 7.84593 12.9626 7.84593 12.233C7.84593 11.5934 7.57537 11.0537 7.03424 10.6539C6.56326 10.2941 5.81169 9.94435 4.72943 9.57457C3.31648 9.08485 2.29435 8.52518 1.70311 7.91553C1.14194 7.33587 0.861358 6.56632 0.861358 5.63686C0.861358 4.88729 1.10186 4.17771 1.58286 3.52808C2.05385 2.88846 2.81544 2.43872 3.82755 2.19886L4.1382 2.1289V0.9196C4.14822 0.539821 4.67933 0.399902 5.03006 0.399902C5.481 0.399902 5.95198 0.599786 5.99207 0.969571V2.16887L6.3428 2.21884C7.03424 2.30879 7.64552 2.59862 8.15658 3.08834C8.67767 3.57805 9.06849 4.23767 9.31901 5.05719C9.4092 5.34703 9.37913 5.59688 9.22882 5.79676C9.03842 6.05661 8.64761 6.23651 8.27683 6.23651C8.1165 6.23651 7.7357 6.19653 7.6856 5.85673C7.48518 5.19711 7.15449 4.6974 6.69353 4.32762C6.22255 3.94784 5.62129 3.75795 4.90981 3.75795C4.28851 3.75795 3.77744 3.89787 3.37661 4.1877C2.94571 4.49752 2.71523 4.94726 2.71523 5.48694C2.71523 6.09659 2.98579 6.5963 3.53694 6.98607C4.00792 7.32587 4.84968 7.69566 6.11232 8.11542C7.56535 8.61512 8.53738 9.22477 8.99834 9.91437C9.46932 10.614 9.6998 11.3935 9.6998 12.233C9.6998 13.4323 9.36911 14.3118 8.70773 14.8515C7.99625 15.4212 7.17453 15.8009 6.26263 15.9708L5.93194 16.0308V17.0602C5.9119 17.44 5.37077 17.5799 5.02004 17.5799L5.01002 17.5999Z" fill="#606882"/>
</svg>
